<svg xmlns="http://www.w3.org/2000/svg" xmlns:xlink="http://www.w3.org/1999/xlink" width="336" height="72" viewBox="0 0 336 72">
  <defs>
    <clipPath id="clip-AsterOnlineLogo">
      <rect width="336" height="72"/>
    </clipPath>
  </defs>
  <g id="AsterOnlineLogo" clip-path="url(#clip-AsterOnlineLogo)">
    <rect width="336" height="72" fill="#fff"/>
    <g id="Group_6" data-name="Group 6" transform="translate(-191.667 -111.617)">
      <path id="Path_17" data-name="Path 17" d="M194.667,370.586l12.741-36.18h8.838l12.791,36.18v2.251H220.75l-3.188-9.773H204.605l-3.07,9.773h-6.869ZM206.415,357.2h9.225l-4.613-14.167h-.11Z" transform="translate(0 -202.467)" fill="#20419a"/>
      <path id="Path_18" data-name="Path 18" d="M614.213,468.017V462.1h2.523a10.488,10.488,0,0,0,7.082,2.418c3.251,0,4.945-.883,4.945-2.691,0-1.753-1.04-2.584-5.108-3.081-6.313-.762-9.661-3.125-9.661-8.779,0-5.822,4.34-9.061,11.42-9.061a18.8,18.8,0,0,1,9.051,1.975v5.819H632.06a11.189,11.189,0,0,0-6.584-1.915c-3.143,0-4.342.93-4.342,2.573,0,1.487,1.423,2.257,5.379,2.752,6.858.877,9.719,3.132,9.719,8.949,0,5.658-3.678,9.33-12.026,9.33a19.361,19.361,0,0,1-9.992-2.367" transform="translate(-382.796 -299.685)" fill="#20419a"/>
      <path id="Path_19" data-name="Path 19" d="M879.81,364.119h3.4v-7.691h8.014v7.691h5.825V369.5h-5.825v14.771c0,2.745,1.1,3.509,3.731,3.509h2.2v4.834a15.81,15.81,0,0,1-5.051.767c-5.541,0-8.893-2.2-8.893-8.178V369.5h-3.4Z" transform="translate(-625.455 -222.571)" fill="#20419a"/>
      <path id="Path_20" data-name="Path 20" d="M1096.748,456.279c.391,5.76,3.13,7.358,7.578,7.358a12.662,12.662,0,0,0,7.63-2.422h2.472v5.275a21.016,21.016,0,0,1-11.307,2.8c-9.447,0-14.608-5.6-14.608-14.66,0-9.28,6.043-14.989,14.044-14.989,8.462,0,12.971,4.67,12.971,14.165,0,.988-.116,2.195-.116,2.475Zm.112-4.835h10.756c-.159-5.111-1.927-6.748-5.058-6.748-2.8,0-5.088,1.366-5.7,6.748" transform="translate(-815.977 -298.533)" fill="#20419a"/>
      <path id="Path_21" data-name="Path 21" d="M1451.057,449.843v20.807h-8.017V441.827h5.444c1.363,0,2.19.6,2.463,3.459a10.925,10.925,0,0,1,8.02-3.734,5.963,5.963,0,0,1,1.757.275v6.314h-1.372a18.072,18.072,0,0,0-8.3,1.7" transform="translate(-1139.618 -300.279)" fill="#20419a"/>
      <path id="Path_22" data-name="Path 22" d="M2530.832,462.557V452.192c0-4.684-.761-6.85-6.149-6.85-3.4,0-5.095-.177-5.914.644-.879,1-.645,5.153-.645,6.207V468.12c-1.522,0-5.387.293-6.675-.76-.937-.7-1.113-2.051-1.113-4.8V439.369c6.266,0,6.266,0,6.266,3.571,1.756-2.108,4.918-3.981,9.72-3.981,10.188,0,12.238,5.855,12.238,13.7V468.12c-7.2,0-7.729-.234-7.729-5.563" transform="translate(-2113.936 -297.912)" fill="#00b18f"/>
      <path id="Path_23" data-name="Path 23" d="M2883,350.984V316.9c1.522,0,5.329-.292,6.675.762.879.7,1.113,2.049,1.113,4.8v34.2c-7.261,0-7.788-.292-7.788-5.68" transform="translate(-2454.129 -186.456)" fill="#00b18f"/>
      <path id="Path_24" data-name="Path 24" d="M3013.716,318.57c-2.811,0-5.387-.876-5.387-4.332,0-3.571,2.459-4.333,5.387-4.333,2.811,0,5.153.82,5.153,4.333,0,3.456-2.342,4.332-5.153,4.332m-3.806,26.059V321.617c1.522,0,5.329-.235,6.675.82.879.7,1.055,1.991,1.055,4.743V350.31c-7.2,0-7.729-.292-7.729-5.68" transform="translate(-2568.543 -180.102)" fill="#00b18f"/>
      <path id="Path_25" data-name="Path 25" d="M3190.443,462.557V452.192c0-4.684-.761-6.85-6.148-6.85-3.4,0-5.095-.177-5.914.644-.879,1-.645,5.153-.645,6.207V468.12c-1.521,0-5.387.293-6.675-.76-.937-.7-1.113-2.051-1.113-4.8V439.369c6.266,0,6.266,0,6.266,3.571,1.756-2.108,4.918-3.981,9.72-3.981,10.188,0,12.238,5.855,12.238,13.7V468.12c-7.2,0-7.729-.234-7.729-5.563" transform="translate(-2716.083 -297.912)" fill="#00b18f"/>
      <path id="Path_26" data-name="Path 26" d="M3552.817,456.059H3538.7c0,3.631,2.635,5.973,7.085,5.973h6.324c5.212,0,5.563.352,5.563,6.149h-11.653c-12,0-15.167-7.027-15.167-14.522,0-7.554,3.221-14.7,15.284-14.7,9.252,0,13.819,5.563,13.819,12.531,0,5.095-.643,4.567-7.143,4.567m-7.2-11.066c-6.734,0-6.91,0-6.91,6.207h13.527c0-3.748-2.636-6.207-6.617-6.207" transform="translate(-3045.551 -297.914)" fill="#00b18f"/>
      <g id="Group_4" data-name="Group 4" transform="translate(517.934 141.047)">
        <path id="Path_27" data-name="Path 27" d="M3970.446,744.944c0,.768-.2,1.383-1.122,1.383s-1.138-.615-1.138-1.383c0-.738.215-1.383,1.138-1.383s1.122.677,1.122,1.383" transform="translate(-3962.715 -717.025)" fill="#00b18f"/>
        <path id="Path_28" data-name="Path 28" d="M3914.892,669.461c0,3.151-1.8,4-3.781,4-1.967,0-3.781-.876-3.781-3.965v-2.306c.338,0,1.152-.061,1.429.215.185.184.231.507.231,1.214v.922c0,.292-.077,1.414.184,1.645.277.277,1.614.215,1.921.215,1.307,0,2.183-.43,2.183-1.875v-.861c0-1.383.092-1.475,1.613-1.475Z" transform="translate(-3907.162 -647.299)" fill="#00b18f"/>
        <path id="Path_29" data-name="Path 29" d="M3913.119,578.44c0,3.166-1.906,3.965-3.873,3.965-1.951,0-3.857-.845-3.857-3.98,0-3.089,1.906-3.981,3.857-3.981,2,0,3.873.892,3.873,4m-3.873-1.937c-1.291,0-2.2.338-2.2,1.921,0,1.937.016,1.921,2.2,1.921,1.323,0,2.213-.368,2.213-1.905,0-1.952-.015-1.906-2.213-1.906Z" transform="translate(-3905.389 -562.641)" fill="#00b18f"/>
        <path id="Path_30" data-name="Path 30" d="M3913.8,440.142c-.092.937-.692.861-1.459.861h-3.028c-.953,0-1.476.185-1.476,1.183,0,1.23.046,1.2,1.476,1.2h4.5c0,.4.077,1.414-.2,1.767-.185.246-.553.277-1.276.277h-3.028c-.953,0-1.476.184-1.476,1.183,0,1.245.046,1.214,1.476,1.214h4.5c0,.4.077,1.414-.2,1.752-.185.246-.553.292-1.276.292h-6.086c0-1.645.031-1.645.952-1.645a2.611,2.611,0,0,1-1.045-2.121,2.144,2.144,0,0,1,1.045-2.074,2.974,2.974,0,0,1-1.045-2.352c0-2.275,1.553-2.72,3.243-2.72h4.411c0,.645,0,.953-.015,1.183" transform="translate(-3906.09 -438.959)" fill="#00b18f"/>
      </g>
      <g id="Group_5" data-name="Group 5" transform="translate(329.116 112.617)">
        <path id="Path_31" data-name="Path 31" d="M1769.449,193.66a31.185,31.185,0,0,0-8.121,1.06l5.981,5.321c.707-.067,1.423-.1,2.14-.1a25.179,25.179,0,0,1,18.238,42.543l2.732,6.1a31.469,31.469,0,0,0-20.97-54.934Zm.611,56.644c-.2.01-.411.01-.611.01a25.174,25.174,0,0,1-17.321-43.45l.038-8.035a31.471,31.471,0,0,0,17.283,57.771,32.317,32.317,0,0,0,3.353-.172Z" transform="translate(-1737.979 -186.6)" fill="#00b18f"/>
        <path id="Path_32" data-name="Path 32" d="M1934.15,168.506l2.732,6.1a31.557,31.557,0,0,1-5.455,3.917l-2.579-5.78-11.694-26.215,8.512-1.08-19.614-17.483-.869-.774-.01,1.166-.124,26.273,6.5-5.608,11.7,26.225,2.579,5.771a31.868,31.868,0,0,1-6.563,1.423l-2.742-6.124-7.385-16.547-10.719,9.258.172-36.151.038-8.035.057-12.229,9.1,8.121,5.981,5.321,27.037,24.1-14.063,1.777Z" transform="translate(-1884.442 -112.617)" fill="#faa41a"/>
      </g>
    </g>
  </g>
</svg>
