<svg xmlns="http://www.w3.org/2000/svg" width="71.633" height="23.672" viewBox="0 0 71.633 23.672">
  <g id="Group_3405" data-name="Group 3405" transform="translate(-358.083 3881)">
    <path id="Path_20953" data-name="Path 20953" d="M198.447,313.164a4.209,4.209,0,0,0,.44,1.093,3.069,3.069,0,0,0,1.077,1.018,3.222,3.222,0,0,0,1.62.381,3.017,3.017,0,0,0,2.087-.68,2.1,2.1,0,0,0,.759-1.616,1.853,1.853,0,0,0-.684-1.446,6.2,6.2,0,0,0-2.122-.9,8.126,8.126,0,0,1-3.074-1.439,2.566,2.566,0,0,1-.92-2,2.975,2.975,0,0,1,1.026-2.26,3.809,3.809,0,0,1,2.693-.947,4.869,4.869,0,0,1,1.91.378,3.8,3.8,0,0,1,1.5,1.124,3.869,3.869,0,0,1,.66,1.352l-1.2.369a3,3,0,0,0-1.057-1.627,2.9,2.9,0,0,0-1.8-.566,2.576,2.576,0,0,0-1.784.606,1.859,1.859,0,0,0-.676,1.429,1.7,1.7,0,0,0,.55,1.226,5.992,5.992,0,0,0,2.39,1.083,7.217,7.217,0,0,1,3.026,1.454,2.861,2.861,0,0,1,.825,2.1,3.166,3.166,0,0,1-1.124,2.442,4.3,4.3,0,0,1-2.987,1.011,4.913,4.913,0,0,1-2.13-.459A4.139,4.139,0,0,1,197.881,315a4.418,4.418,0,0,1-.676-1.51Z" transform="translate(160.878 -4174.069)" fill="#b9811c"/>
    <path id="Path_20954" data-name="Path 20954" d="M279.09,305.815h7.019v1.132h-5.864v3.891h4.362v1.147h-4.362v4.6h6.43v1.147H279.09Z" transform="translate(91.82 -4175.295)" fill="#b9811c"/>
    <path id="Path_20955" data-name="Path 20955" d="M357.106,312.429a5.383,5.383,0,0,1-.637,1.611,4.488,4.488,0,0,1-1.608,1.517,4.611,4.611,0,0,1-2.284.55,5.391,5.391,0,0,1-2.641-.695,4.494,4.494,0,0,1-1.91-2.08,7.582,7.582,0,0,1-.652-3.263,8.466,8.466,0,0,1,.665-3.458,4.765,4.765,0,0,1,1.93-2.252,5.145,5.145,0,0,1,2.665-.75,4.755,4.755,0,0,1,2.016.456,4.322,4.322,0,0,1,1.632,1.289A4.5,4.5,0,0,1,357,306.9l-2.2.629a2.658,2.658,0,0,0-.837-1.474,2.187,2.187,0,0,0-1.442-.5,2.165,2.165,0,0,0-1.958,1.219,6.36,6.36,0,0,0-.7,3.184,6.692,6.692,0,0,0,.322,2.177,2.9,2.9,0,0,0,.888,1.38,1.95,1.95,0,0,0,1.226.443,2.539,2.539,0,0,0,1.769-.716,3.29,3.29,0,0,0,.865-1.43Z" transform="translate(34.233 -4173.437)" fill="#b9811c"/>
    <path id="Path_20956" data-name="Path 20956" d="M432.071,305.111h2.374v7.343a2.928,2.928,0,0,0,.637,2.059,2.248,2.248,0,0,0,1.73.684,2.718,2.718,0,0,0,1.242-.275,2.013,2.013,0,0,0,.869-.9,3.362,3.362,0,0,0,.326-1.572v-7.343h2.383V312.8a4.549,4.549,0,0,1-1.2,3.388,4.81,4.81,0,0,1-3.521,1.187,7.173,7.173,0,0,1-2.492-.424,3.152,3.152,0,0,1-1.022-.6,4.169,4.169,0,0,1-.943-1.325,5.175,5.175,0,0,1-.377-2.166Z" transform="translate(-37.197 -4174.703)" fill="#b9811c"/>
    <path id="Path_20957" data-name="Path 20957" d="M521.129,305.11h3.247A11.254,11.254,0,0,1,528,305.5a3.12,3.12,0,0,1,1.561,1.3,3.868,3.868,0,0,1,.559,2.075,2.988,2.988,0,0,1-.5,1.781,3.873,3.873,0,0,1-1.745,1.207l2.163,5.274h-2.344l-2.017-4.834H523.5v4.834h-2.374Zm2.374,2.1v3.239H525.4a2.726,2.726,0,0,0,1.769-.59,1.334,1.334,0,0,0,.48-1.092,1.388,1.388,0,0,0-.535-1.113,2.669,2.669,0,0,0-1.713-.444Z" transform="translate(-112.304 -4174.702)" fill="#b9811c"/>
    <path id="Path_20958" data-name="Path 20958" d="M603.008,305.111h8.066V307.2h-5.7v2.649h3.475v1.784h-3.475v3.427h5.7v2.076h-8.066Z" transform="translate(-181.357 -4174.702)" fill="#b9811c"/>
    <path id="Path_20959" data-name="Path 20959" d="M437.334,233.664c-1.755-2.28-4.778-1.638-4.687,1.192.092,2.887,4.687,5.875,4.687,5.875s4.595-2.988,4.687-5.875c.09-2.831-2.931-3.472-4.687-1.192" transform="translate(-37.681 -4113.282)" fill="#1c937e"/>
    <path id="Path_20960" data-name="Path 20960" d="M197.206,249.645l2.353-6.682h1.633l2.362,6.682v.415h-1.532l-.588-1.8h-2.393l-.568,1.8h-1.267Zm2.17-2.475h1.7l-.852-2.616h-.02Z" transform="translate(160.878 -4122.29)" fill="#b9811c"/>
    <path id="Path_20961" data-name="Path 20961" d="M239.349,258.91v-1.1h.468a1.937,1.937,0,0,0,1.308.446c.6,0,.912-.162.912-.5s-.193-.477-.943-.569c-1.166-.141-1.785-.578-1.785-1.622,0-1.075.8-1.673,2.11-1.673a3.45,3.45,0,0,1,1.672.366v1.074h-.446a2.074,2.074,0,0,0-1.217-.354c-.577,0-.8.172-.8.475,0,.274.264.415.994.507,1.267.163,1.794.579,1.794,1.654,0,1.044-.678,1.724-2.22,1.724a3.6,3.6,0,0,1-1.846-.436" transform="translate(125.37 -4131.514)" fill="#b9811c"/>
    <path id="Path_20962" data-name="Path 20962" d="M265.962,246.648h.628v-1.42h1.48v1.42h1.075v.994H268.07v2.726c0,.509.2.65.69.65h.4v.894a2.964,2.964,0,0,1-.933.141c-1.025,0-1.642-.4-1.642-1.511v-2.9h-.628Z" transform="translate(102.892 -4124.202)" fill="#b9811c"/>
    <path id="Path_20963" data-name="Path 20963" d="M288.272,256.846c.072,1.064.579,1.358,1.4,1.358a2.335,2.335,0,0,0,1.408-.446h.457v.973a3.888,3.888,0,0,1-2.089.518,2.468,2.468,0,0,1-2.7-2.708,2.551,2.551,0,0,1,2.6-2.768c1.561,0,2.393.861,2.393,2.617,0,.182-.021.4-.021.456Zm.021-.893h1.986c-.03-.944-.354-1.248-.932-1.248-.518,0-.944.253-1.054,1.248" transform="translate(85.359 -4131.406)" fill="#b9811c"/>
    <path id="Path_20964" data-name="Path 20964" d="M324.013,255.5v3.843h-1.48v-5.323h1c.254,0,.406.111.456.639a2.014,2.014,0,0,1,1.481-.69,1.175,1.175,0,0,1,.324.051v1.166h-.254a3.341,3.341,0,0,0-1.531.314" transform="translate(55.183 -4131.569)" fill="#b9811c"/>
  </g>
</svg>
