<svg id="Group_6481" data-name="Group 6481" xmlns="http://www.w3.org/2000/svg" width="26.38" height="26.38" viewBox="0 0 26.38 26.38">
  <g id="Group_6480" data-name="Group 6480">
    <path id="Path_21243" data-name="Path 21243" d="M26.149,6a1.03,1.03,0,0,0-.8-.38H6.685l-.076-.7,0-.023A5.638,5.638,0,0,0,1.03,0a1.03,1.03,0,0,0,0,2.061A3.572,3.572,0,0,1,4.56,5.149L5.785,16.4a3.1,3.1,0,0,0-1.818,2.817c0,.009,0,.017,0,.026s0,.017,0,.026a3.1,3.1,0,0,0,3.091,3.091h.419a3.04,3.04,0,1,0,5.756,0H17.68A3.04,3.04,0,1,0,20.558,20.3H7.059a1.032,1.032,0,0,1-1.03-1.03c0-.009,0-.017,0-.026s0-.017,0-.026a1.032,1.032,0,0,1,1.03-1.03H20.214A4.719,4.719,0,0,0,24.491,15.3a1.03,1.03,0,1,0-1.887-.828,2.694,2.694,0,0,1-2.39,1.651H7.829l-.92-8.45H24.082l-.5,2.417a1.03,1.03,0,1,0,2.018.421l.763-3.658A1.03,1.03,0,0,0,26.149,6ZM20.558,22.361a.979.979,0,1,1-.979.979A.98.98,0,0,1,20.558,22.361Zm-10.2,0a.979.979,0,1,1-.979.979A.98.98,0,0,1,10.356,22.361Z" fill="#20419a"/>
  </g>
</svg>
