<svg xmlns="http://www.w3.org/2000/svg" xmlns:xlink="http://www.w3.org/1999/xlink" width="58" height="36" viewBox="0 0 58 36">
  <defs>
    <clipPath id="clip-Free_Delivery">
      <rect width="58" height="36"/>
    </clipPath>
  </defs>
  <g id="Free_Delivery" data-name="Free Delivery" clip-path="url(#clip-Free_Delivery)">
    <g id="Group_6476" data-name="Group 6476" transform="translate(0.997 1.763)">
      <g id="Group_6383" data-name="Group 6383" transform="translate(3.895 2.432)">
        <g id="Group_6474" data-name="Group 6474" transform="translate(0)">
          <path id="Path_21212" data-name="Path 21212" d="M92.875,316.168a2.874,2.874,0,1,0,2.874,2.874A2.877,2.877,0,0,0,92.875,316.168Zm0,3.832a.958.958,0,1,1,.958-.958A.959.959,0,0,1,92.875,320Z" transform="translate(-81.379 -295.091)" fill="#20419a"/>
          <path id="Path_21213" data-name="Path 21213" d="M364.874,316.168a2.874,2.874,0,1,0,2.874,2.874A2.877,2.877,0,0,0,364.874,316.168Zm0,3.832a.958.958,0,1,1,.958-.958A.959.959,0,0,1,364.874,320Z" transform="translate(-327.319 -295.091)" fill="#20419a"/>
          <path id="Path_21214" data-name="Path 21214" d="M48.093,115.585v-2.233a4.8,4.8,0,0,0-4.79-4.79h-.384l-3.6-9.85a3.887,3.887,0,0,0-3.774-2.545H3.832A2.877,2.877,0,0,0,.958,99.041v16.544A1.917,1.917,0,0,0,0,117.244v1.916a1.918,1.918,0,0,0,1.916,1.916H4.858a6.712,6.712,0,0,0,13.276,0H30.917a6.712,6.712,0,0,0,13.276,0h2.943a1.918,1.918,0,0,0,1.916-1.916v-1.916a1.917,1.917,0,0,0-.958-1.659Zm-9.316-12.772,2.1,5.748H35.064v-5.748ZM3.832,98.083H35.543a1.985,1.985,0,0,1,1.974,1.287l.559,1.527h-3.97a.958.958,0,0,0-.958.958v7.664a.958.958,0,0,0,.958.958h9.2a2.877,2.877,0,0,1,2.874,2.874v1.976H42.243a6.731,6.731,0,0,0-9.378,0h-4a.958.958,0,0,0,0,1.916H31.5a6.652,6.652,0,0,0-.579,1.916H18.134a6.652,6.652,0,0,0-.579-1.916h2.694a.958.958,0,0,0,0-1.916H16.185a6.731,6.731,0,0,0-9.378,0H2.874V99.041a.959.959,0,0,1,.958-.958ZM1.916,117.244H5.438a6.652,6.652,0,0,0-.579,1.916H1.916Zm9.581,7.664a4.79,4.79,0,1,1,4.79-4.79A4.8,4.8,0,0,1,11.5,124.908Zm26.058,0a4.79,4.79,0,1,1,4.79-4.79A4.8,4.8,0,0,1,37.555,124.908Zm9.58-5.748H44.193a6.652,6.652,0,0,0-.579-1.916h3.522v1.916Z" transform="translate(0 -96.167)" fill="#20419a"/>
        </g>
        <path id="Path_21215" data-name="Path 21215" d="M246.356,297.2a1.027,1.027,0,1,0,1.028-1.027h0A1.027,1.027,0,0,0,246.356,297.2Z" transform="translate(-224.598 -277.838)" fill="#20419a"/>
        <g id="Group_6475" data-name="Group 6475" transform="translate(7.704 6.307)">
          <path id="Path_21239" data-name="Path 21239" d="M198.829,152.444h2.893c1.1-.036,1.1-1.344,0-1.38h-2.066v-1.38h.909c1.1-.037,1.1-1.344,0-1.381h-.909v-1.381h2.066c1.1-.037,1.1-1.344,0-1.38h-2.893a.768.768,0,0,0-.827.69v5.522A.768.768,0,0,0,198.829,152.444Z" transform="translate(-186.38 -145.542)" fill="#00b18f"/>
          <path id="Path_21240" data-name="Path 21240" d="M123.828,152.445a.768.768,0,0,0,.827-.69v-2.071h.316l1.425,2.38c.532.8,1.931.213,1.479-.617l-1.206-2.015c2.224-1.03,1.391-3.863-1.186-3.889h-1.653a.768.768,0,0,0-.827.69v5.522A.768.768,0,0,0,123.828,152.445Zm.827-5.522h.827c1.091.037,1.1,1.333.01,1.38h-.836Z" transform="translate(-117.579 -145.543)" fill="#00b18f"/>
          <path id="Path_21241" data-name="Path 21241" d="M53.827,152.444a.768.768,0,0,0,.827-.69v-2.071h.909c1.1-.037,1.1-1.344,0-1.381h-.909v-1.381H56.72c1.1-.037,1.1-1.344,0-1.38H53.827a.768.768,0,0,0-.827.69v5.522A.768.768,0,0,0,53.827,152.444Z" transform="translate(-53 -145.542)" fill="#00b18f"/>
          <path id="Path_21242" data-name="Path 21242" d="M268.83,152.444h2.893c1.1-.036,1.1-1.344,0-1.38h-2.067v-1.38h.909c1.1-.037,1.1-1.344,0-1.381h-.909v-1.381h2.067c1.1-.037,1.1-1.344,0-1.38H268.83a.768.768,0,0,0-.827.69v5.522A.768.768,0,0,0,268.83,152.444Z" transform="translate(-250.593 -145.542)" fill="#00b18f"/>
        </g>
      </g>
    </g>
  </g>
</svg>
