<svg xmlns="http://www.w3.org/2000/svg" xmlns:xlink="http://www.w3.org/1999/xlink" width="58" height="36" viewBox="0 0 58 36">
  <defs>
    <clipPath id="clip-Returns">
      <rect width="58" height="36"/>
    </clipPath>
  </defs>
  <g id="Returns" clip-path="url(#clip-Returns)">
    <g id="Group_6473" data-name="Group 6473" transform="translate(-131.963 -83.518)">
      <path id="return2" d="M168.714,116.159a1.24,1.24,0,0,1-1.24,1.24H152.336a4.968,4.968,0,0,1-4.964-4.959V98.665a1.241,1.241,0,0,1,2.482,0v13.776a2.484,2.484,0,0,0,2.482,2.482h15.137A1.241,1.241,0,0,1,168.714,116.159Zm9.182-26.8v3.726a1.24,1.24,0,0,1-1.24,1.24v9.056a1.241,1.241,0,1,1-2.482,0V94.322h-26.8a1.24,1.24,0,0,1-1.24-1.24h0V89.359a3.726,3.726,0,0,1,3.722-3.722h24.319a3.726,3.726,0,0,1,3.722,3.722Zm-29.282,2.485h26.8V89.359a1.242,1.242,0,0,0-1.24-1.24H149.854a1.243,1.243,0,0,0-1.24,1.24Zm16.13,7.445a1.241,1.241,0,1,0,0-2.482h-5.58a1.241,1.241,0,0,0,0,2.482Z" transform="translate(-2 0)" fill="#003587"/>
      <path id="Path_21238" data-name="Path 21238" d="M173.295,107.785h-6.13l1.457-1.44a1.162,1.162,0,0,0-1.634-1.653h0l-2.159,2.133a2.89,2.89,0,0,0-.027,4.087l.021.021,2.162,2.148a1.162,1.162,0,1,0,1.639-1.648h0l-1.333-1.327h6.005a2.818,2.818,0,0,1,.033,5.637,1.162,1.162,0,0,0,0,2.325,5.059,5.059,0,0,0,3.625-1.511,5.38,5.38,0,0,0,1.285-2.179,4.763,4.763,0,0,0,.2-1.457,5.149,5.149,0,0,0-5.147-5.138Z" transform="translate(-0.425 -0.669)" fill="#00b18f"/>
    </g>
  </g>
</svg>
