<svg xmlns="http://www.w3.org/2000/svg" xmlns:xlink="http://www.w3.org/1999/xlink" width="58" height="36" viewBox="0 0 58 36">
  <defs>
    <clipPath id="clip-Brands">
      <rect width="58" height="36"/>
    </clipPath>
  </defs>
  <g id="Brands" clip-path="url(#clip-Brands)">
    <g id="linear_color" data-name="linear color" transform="translate(15)">
      <path id="Path_21228" data-name="Path 21228" d="M85.521,20.546l.651-2.854a.86.86,0,0,0-.166-.727l-1.825-2.289-.651-2.854a.86.86,0,0,0-.465-.583l-2.638-1.27L78.6,7.679a.86.86,0,0,0-.672-.324H75l-2.638-1.27a.86.86,0,0,0-.746,0L68.98,7.355H66.053a.86.86,0,0,0-.672.324L63.555,9.968l-2.638,1.27a.86.86,0,0,0-.465.583L59.8,14.676l-1.825,2.289a.86.86,0,0,0-.166.727l.651,2.854L57.81,23.4a.86.86,0,0,0,.166.727L59.8,26.416l.651,2.854a.86.86,0,0,0,.465.583l2.034.979L58.673,36.46a.866.866,0,0,0,.525,1.365l3.356.634,1.507,3.065a.866.866,0,0,0,1.456.141l5.343-7.024.76.365a.86.86,0,0,0,.746,0l.76-.365,5.342,7.024a.866.866,0,0,0,1.456-.141l1.507-3.065,3.356-.634a.866.866,0,0,0,.525-1.365l-4.279-5.626,2.033-.979a.86.86,0,0,0,.465-.583l.651-2.854,1.825-2.289a.86.86,0,0,0,.166-.727ZM64.99,39.517l-1.083-2.2a.86.86,0,0,0-.612-.466l-2.411-.456,3.356-4.412,1.142,1.432a.86.86,0,0,0,.672.324H68.98l.3.143Zm15.7-2.668a.86.86,0,0,0-.612.466l-1.083,2.2L74.705,33.88l.3-.143h2.927a.86.86,0,0,0,.672-.324l1.142-1.432L83.1,36.393ZM83.8,20.737l.6,2.642L82.714,25.5a.86.86,0,0,0-.166.345l-.6,2.642L79.5,29.66a.86.86,0,0,0-.3.239l-1.689,2.118h-2.71a.861.861,0,0,0-.373.085l-2.441,1.176L69.55,32.1a.86.86,0,0,0-.373-.085h-2.71L64.778,29.9a.86.86,0,0,0-.3-.239l-2.441-1.176-.6-2.642a.86.86,0,0,0-.166-.345l-1.69-2.118.6-2.642a.86.86,0,0,0,0-.383l-.6-2.642,1.69-2.118a.86.86,0,0,0,.166-.345l.6-2.642,2.441-1.176a.86.86,0,0,0,.3-.239l1.689-2.118h2.71a.86.86,0,0,0,.373-.085l2.441-1.176L74.433,8.99a.86.86,0,0,0,.373.085h2.71L79.2,11.194a.86.86,0,0,0,.3.239l2.441,1.176.6,2.642a.86.86,0,0,0,.166.345L84.4,17.713l-.6,2.642a.858.858,0,0,0,0,.383Z" transform="translate(-57.788 -6)" fill="#20419a"/>
      <path id="Path_21230" data-name="Path 21230" d="M194.82,171a1.134,1.134,0,0,0-1.24,0l-2.324,1.518-2.021-3.316a1.134,1.134,0,0,0-1.936,0l-2.021,3.316L182.955,171a1.134,1.134,0,0,0-1.738,1.135L182.3,178.6a1.134,1.134,0,0,0,1.118.947h9.708a1.134,1.134,0,0,0,1.118-.947l1.079-6.472a1.134,1.134,0,0,0-.5-1.135Zm-2.659,6.287h-7.787l-.5-2.977,1.141.745a1.134,1.134,0,0,0,1.588-.359l1.661-2.726,1.661,2.726a1.134,1.134,0,0,0,1.588.359l1.141-.745Z" transform="translate(-174.064 -158.946)" fill="#00b18f"/>
      <ellipse id="Ellipse_64" data-name="Ellipse 64" cx="1.134" cy="1.134" rx="1.134" ry="1.134" transform="translate(13.069 6.655)" fill="#00b18f"/>
      <ellipse id="Ellipse_65" data-name="Ellipse 65" cx="1.134" cy="1.134" rx="1.134" ry="1.134" transform="translate(21.004 9.646)" fill="#00b18f"/>
      <ellipse id="Ellipse_66" data-name="Ellipse 66" cx="1.134" cy="1.134" rx="1.134" ry="1.134" transform="translate(5.134 9.646)" fill="#00b18f"/>
    </g>
  </g>
</svg>
